<mxfile host="65bd71144e" pages="2">
    <diagram id="Yih-MAFXo4TqjhYUZ6GR" name="Page-1">
        <mxGraphModel dx="419" dy="478" grid="1" gridSize="10" guides="1" tooltips="1" connect="1" arrows="1" fold="1" page="1" pageScale="1" pageWidth="827" pageHeight="1169" math="0" shadow="0">
            <root>
                <mxCell id="0"/>
                <mxCell id="1" parent="0"/>
                <object placeholders="1" c4Name="Scafflater" c4Type="Component" c4Technology="node" c4Description="Componente principal" label="&lt;b&gt;%c4Name%&lt;/b&gt;&lt;div&gt;[%c4Type%: %c4Technology%]&lt;/div&gt;&lt;br&gt;&lt;div&gt;%c4Description%&lt;/div&gt;" id="csRIXp1JGR-Yoe9KNrGI-1">
                    <mxCell style="rounded=1;whiteSpace=wrap;html=1;labelBackgroundColor=none;fillColor=#85BBF0;fontColor=#ffffff;align=center;arcSize=10;strokeColor=#78A8D8;metaEdit=1;metaData={&quot;c4Type&quot;:{&quot;editable&quot;:false}};points=[[0.25,0,0],[0.5,0,0],[0.75,0,0],[1,0.25,0],[1,0.5,0],[1,0.75,0],[0.75,1,0],[0.5,1,0],[0.25,1,0],[0,0.75,0],[0,0.5,0],[0,0.25,0]];" parent="1" vertex="1">
                        <mxGeometry x="50" y="210" width="160" height="110.00000000000001" as="geometry"/>
                    </mxCell>
                </object>
                <object placeholders="1" c4Name="Template Manager" c4Type="Component" c4Technology="node" c4Description="Componente responsável por fazer a gestão de templates." label="&lt;b&gt;%c4Name%&lt;/b&gt;&lt;div&gt;[%c4Type%: %c4Technology%]&lt;/div&gt;&lt;br&gt;&lt;div&gt;%c4Description%&lt;/div&gt;" id="ylQ0tcns-Ho-obvVlglr-1">
                    <mxCell style="rounded=1;whiteSpace=wrap;html=1;labelBackgroundColor=none;fillColor=#85BBF0;fontColor=#ffffff;align=center;arcSize=10;strokeColor=#78A8D8;metaEdit=1;metaData={&quot;c4Type&quot;:{&quot;editable&quot;:false}};points=[[0.25,0,0],[0.5,0,0],[0.75,0,0],[1,0.25,0],[1,0.5,0],[1,0.75,0],[0.75,1,0],[0.5,1,0],[0.25,1,0],[0,0.75,0],[0,0.5,0],[0,0.25,0]];" parent="1" vertex="1">
                        <mxGeometry x="380" y="210" width="160" height="110.00000000000001" as="geometry"/>
                    </mxCell>
                </object>
                <mxCell id="ylQ0tcns-Ho-obvVlglr-2" value="Scafflater" style="swimlane;fontStyle=1;align=center;verticalAlign=top;childLayout=stackLayout;horizontal=1;startSize=26;horizontalStack=0;resizeParent=1;resizeParentMax=0;resizeLast=0;collapsible=1;marginBottom=0;" parent="1" vertex="1">
                    <mxGeometry y="720" width="160" height="86" as="geometry"/>
                </mxCell>
                <mxCell id="ylQ0tcns-Ho-obvVlglr-3" value="+ field: type" style="text;strokeColor=none;fillColor=none;align=left;verticalAlign=top;spacingLeft=4;spacingRight=4;overflow=hidden;rotatable=0;points=[[0,0.5],[1,0.5]];portConstraint=eastwest;" parent="ylQ0tcns-Ho-obvVlglr-2" vertex="1">
                    <mxGeometry y="26" width="160" height="26" as="geometry"/>
                </mxCell>
                <mxCell id="ylQ0tcns-Ho-obvVlglr-4" value="" style="line;strokeWidth=1;fillColor=none;align=left;verticalAlign=middle;spacingTop=-1;spacingLeft=3;spacingRight=3;rotatable=0;labelPosition=right;points=[];portConstraint=eastwest;" parent="ylQ0tcns-Ho-obvVlglr-2" vertex="1">
                    <mxGeometry y="52" width="160" height="8" as="geometry"/>
                </mxCell>
                <mxCell id="ylQ0tcns-Ho-obvVlglr-5" value="+ method(type): type" style="text;strokeColor=none;fillColor=none;align=left;verticalAlign=top;spacingLeft=4;spacingRight=4;overflow=hidden;rotatable=0;points=[[0,0.5],[1,0.5]];portConstraint=eastwest;" parent="ylQ0tcns-Ho-obvVlglr-2" vertex="1">
                    <mxGeometry y="60" width="160" height="26" as="geometry"/>
                </mxCell>
                <mxCell id="ylQ0tcns-Ho-obvVlglr-7" value="TemplateManager" style="swimlane;fontStyle=1;align=center;verticalAlign=top;childLayout=stackLayout;horizontal=1;startSize=26;horizontalStack=0;resizeParent=1;resizeParentMax=0;resizeLast=0;collapsible=1;marginBottom=0;" parent="1" vertex="1">
                    <mxGeometry x="320" y="720" width="160" height="86" as="geometry"/>
                </mxCell>
                <mxCell id="ylQ0tcns-Ho-obvVlglr-8" value="+ field: type" style="text;strokeColor=none;fillColor=none;align=left;verticalAlign=top;spacingLeft=4;spacingRight=4;overflow=hidden;rotatable=0;points=[[0,0.5],[1,0.5]];portConstraint=eastwest;" parent="ylQ0tcns-Ho-obvVlglr-7" vertex="1">
                    <mxGeometry y="26" width="160" height="26" as="geometry"/>
                </mxCell>
                <mxCell id="ylQ0tcns-Ho-obvVlglr-9" value="" style="line;strokeWidth=1;fillColor=none;align=left;verticalAlign=middle;spacingTop=-1;spacingLeft=3;spacingRight=3;rotatable=0;labelPosition=right;points=[];portConstraint=eastwest;" parent="ylQ0tcns-Ho-obvVlglr-7" vertex="1">
                    <mxGeometry y="52" width="160" height="8" as="geometry"/>
                </mxCell>
                <mxCell id="ylQ0tcns-Ho-obvVlglr-10" value="+ method(type): type" style="text;strokeColor=none;fillColor=none;align=left;verticalAlign=top;spacingLeft=4;spacingRight=4;overflow=hidden;rotatable=0;points=[[0,0.5],[1,0.5]];portConstraint=eastwest;" parent="ylQ0tcns-Ho-obvVlglr-7" vertex="1">
                    <mxGeometry y="60" width="160" height="26" as="geometry"/>
                </mxCell>
                <mxCell id="ylQ0tcns-Ho-obvVlglr-13" value="LocalTemplateManager" style="swimlane;fontStyle=1;align=center;verticalAlign=top;childLayout=stackLayout;horizontal=1;startSize=26;horizontalStack=0;resizeParent=1;resizeParentMax=0;resizeLast=0;collapsible=1;marginBottom=0;" parent="1" vertex="1">
                    <mxGeometry x="160" y="840" width="160" height="86" as="geometry"/>
                </mxCell>
                <mxCell id="ylQ0tcns-Ho-obvVlglr-14" value="+ field: type" style="text;strokeColor=none;fillColor=none;align=left;verticalAlign=top;spacingLeft=4;spacingRight=4;overflow=hidden;rotatable=0;points=[[0,0.5],[1,0.5]];portConstraint=eastwest;" parent="ylQ0tcns-Ho-obvVlglr-13" vertex="1">
                    <mxGeometry y="26" width="160" height="26" as="geometry"/>
                </mxCell>
                <mxCell id="ylQ0tcns-Ho-obvVlglr-15" value="" style="line;strokeWidth=1;fillColor=none;align=left;verticalAlign=middle;spacingTop=-1;spacingLeft=3;spacingRight=3;rotatable=0;labelPosition=right;points=[];portConstraint=eastwest;" parent="ylQ0tcns-Ho-obvVlglr-13" vertex="1">
                    <mxGeometry y="52" width="160" height="8" as="geometry"/>
                </mxCell>
                <mxCell id="ylQ0tcns-Ho-obvVlglr-16" value="+ method(type): type" style="text;strokeColor=none;fillColor=none;align=left;verticalAlign=top;spacingLeft=4;spacingRight=4;overflow=hidden;rotatable=0;points=[[0,0.5],[1,0.5]];portConstraint=eastwest;" parent="ylQ0tcns-Ho-obvVlglr-13" vertex="1">
                    <mxGeometry y="60" width="160" height="26" as="geometry"/>
                </mxCell>
                <object placeholders="1" c4Name="Local Template Storage" c4Type="Component" c4Technology="node" c4Description="Usa uma estrutura de pastas pré-definida para armazenar os templates." label="&lt;b&gt;%c4Name%&lt;/b&gt;&lt;div&gt;[%c4Type%: %c4Technology%]&lt;/div&gt;&lt;br&gt;&lt;div&gt;%c4Description%&lt;/div&gt;" id="ylQ0tcns-Ho-obvVlglr-17">
                    <mxCell style="rounded=1;whiteSpace=wrap;html=1;labelBackgroundColor=none;fillColor=#85BBF0;fontColor=#ffffff;align=center;arcSize=10;strokeColor=#78A8D8;metaEdit=1;metaData={&quot;c4Type&quot;:{&quot;editable&quot;:false}};points=[[0.25,0,0],[0.5,0,0],[0.75,0,0],[1,0.25,0],[1,0.5,0],[1,0.75,0],[0.75,1,0],[0.5,1,0],[0.25,1,0],[0,0.75,0],[0,0.5,0],[0,0.25,0]];" parent="1" vertex="1">
                        <mxGeometry x="640" y="360" width="160" height="110.00000000000001" as="geometry"/>
                    </mxCell>
                </object>
                <object placeholders="1" c4Type="Relationship" c4Technology="node" c4Description="Especializa" label="&lt;div style=&quot;text-align: left&quot;&gt;&lt;div style=&quot;text-align: center&quot;&gt;&lt;b&gt;%c4Description%&lt;/b&gt;&lt;/div&gt;&lt;div style=&quot;text-align: center&quot;&gt;[%c4Technology%]&lt;/div&gt;&lt;/div&gt;" id="ylQ0tcns-Ho-obvVlglr-18">
                    <mxCell style="edgeStyle=none;rounded=0;html=1;jettySize=auto;orthogonalLoop=1;strokeColor=#707070;strokeWidth=2;fontColor=#707070;jumpStyle=none;dashed=1;metaEdit=1;metaData={&quot;c4Type&quot;:{&quot;editable&quot;:false}};" parent="1" source="ylQ0tcns-Ho-obvVlglr-17" target="0laCgoezgkWeQryW_9aH-1" edge="1">
                        <mxGeometry width="160" relative="1" as="geometry">
                            <mxPoint x="590" y="600" as="sourcePoint"/>
                            <mxPoint x="750" y="600" as="targetPoint"/>
                        </mxGeometry>
                    </mxCell>
                </object>
                <object placeholders="1" c4Type="Relationship" c4Technology="node" c4Description="Usa" label="&lt;div style=&quot;text-align: left&quot;&gt;&lt;div style=&quot;text-align: center&quot;&gt;&lt;b&gt;%c4Description%&lt;/b&gt;&lt;/div&gt;&lt;div style=&quot;text-align: center&quot;&gt;[%c4Technology%]&lt;/div&gt;&lt;/div&gt;" id="ylQ0tcns-Ho-obvVlglr-20">
                    <mxCell style="edgeStyle=none;rounded=0;html=1;jettySize=auto;orthogonalLoop=1;strokeColor=#707070;strokeWidth=2;fontColor=#707070;jumpStyle=none;dashed=1;metaEdit=1;metaData={&quot;c4Type&quot;:{&quot;editable&quot;:false}};" parent="1" source="csRIXp1JGR-Yoe9KNrGI-1" target="ylQ0tcns-Ho-obvVlglr-1" edge="1">
                        <mxGeometry width="160" relative="1" as="geometry">
                            <mxPoint x="270" y="490" as="sourcePoint"/>
                            <mxPoint x="410.54054054054063" y="360" as="targetPoint"/>
                        </mxGeometry>
                    </mxCell>
                </object>
                <object placeholders="1" c4Name="Template Source" c4Type="Component" c4Technology="node" c4Description="Componente responsável por prover os templates armazenados em diversas fontes." label="&lt;b&gt;%c4Name%&lt;/b&gt;&lt;div&gt;[%c4Type%: %c4Technology%]&lt;/div&gt;&lt;br&gt;&lt;div&gt;%c4Description%&lt;/div&gt;" id="ylQ0tcns-Ho-obvVlglr-21">
                    <mxCell style="rounded=1;whiteSpace=wrap;html=1;labelBackgroundColor=none;fillColor=#85BBF0;fontColor=#ffffff;align=center;arcSize=10;strokeColor=#78A8D8;metaEdit=1;metaData={&quot;c4Type&quot;:{&quot;editable&quot;:false}};points=[[0.25,0,0],[0.5,0,0],[0.75,0,0],[1,0.25,0],[1,0.5,0],[1,0.75,0],[0.75,1,0],[0.5,1,0],[0.25,1,0],[0,0.75,0],[0,0.5,0],[0,0.25,0]];" parent="1" vertex="1">
                        <mxGeometry x="380" y="30" width="160" height="110.00000000000001" as="geometry"/>
                    </mxCell>
                </object>
                <object placeholders="1" c4Type="Relationship" c4Technology="node" c4Description="Usa" label="&lt;div style=&quot;text-align: left&quot;&gt;&lt;div style=&quot;text-align: center&quot;&gt;&lt;b&gt;%c4Description%&lt;/b&gt;&lt;/div&gt;&lt;div style=&quot;text-align: center&quot;&gt;[%c4Technology%]&lt;/div&gt;&lt;/div&gt;" id="ylQ0tcns-Ho-obvVlglr-23">
                    <mxCell style="edgeStyle=none;rounded=0;html=1;jettySize=auto;orthogonalLoop=1;strokeColor=#707070;strokeWidth=2;fontColor=#707070;jumpStyle=none;dashed=1;metaEdit=1;metaData={&quot;c4Type&quot;:{&quot;editable&quot;:false}};" parent="1" source="ylQ0tcns-Ho-obvVlglr-1" target="ylQ0tcns-Ho-obvVlglr-21" edge="1">
                        <mxGeometry width="160" relative="1" as="geometry">
                            <mxPoint x="230" y="305" as="sourcePoint"/>
                            <mxPoint x="390" y="305" as="targetPoint"/>
                        </mxGeometry>
                    </mxCell>
                </object>
                <object placeholders="1" c4Name="Github Template Source" c4Type="Component" c4Technology="node" c4Description="Componente responsável por prover os templates armazenados no Github." label="&lt;b&gt;%c4Name%&lt;/b&gt;&lt;div&gt;[%c4Type%: %c4Technology%]&lt;/div&gt;&lt;br&gt;&lt;div&gt;%c4Description%&lt;/div&gt;" id="ylQ0tcns-Ho-obvVlglr-24">
                    <mxCell style="rounded=1;whiteSpace=wrap;html=1;labelBackgroundColor=none;fillColor=#85BBF0;fontColor=#ffffff;align=center;arcSize=10;strokeColor=#78A8D8;metaEdit=1;metaData={&quot;c4Type&quot;:{&quot;editable&quot;:false}};points=[[0.25,0,0],[0.5,0,0],[0.75,0,0],[1,0.25,0],[1,0.5,0],[1,0.75,0],[0.75,1,0],[0.5,1,0],[0.25,1,0],[0,0.75,0],[0,0.5,0],[0,0.25,0]];" parent="1" vertex="1">
                        <mxGeometry x="640" y="30" width="160" height="110.00000000000001" as="geometry"/>
                    </mxCell>
                </object>
                <object placeholders="1" c4Type="Relationship" c4Technology="node" c4Description="Especializa" label="&lt;div style=&quot;text-align: left&quot;&gt;&lt;div style=&quot;text-align: center&quot;&gt;&lt;b&gt;%c4Description%&lt;/b&gt;&lt;/div&gt;&lt;div style=&quot;text-align: center&quot;&gt;[%c4Technology%]&lt;/div&gt;&lt;/div&gt;" id="ylQ0tcns-Ho-obvVlglr-25">
                    <mxCell style="edgeStyle=none;rounded=0;html=1;jettySize=auto;orthogonalLoop=1;strokeColor=#707070;strokeWidth=2;fontColor=#707070;jumpStyle=none;dashed=1;metaEdit=1;metaData={&quot;c4Type&quot;:{&quot;editable&quot;:false}};" parent="1" source="ylQ0tcns-Ho-obvVlglr-24" target="ylQ0tcns-Ho-obvVlglr-21" edge="1">
                        <mxGeometry width="160" relative="1" as="geometry">
                            <mxPoint x="690" y="470" as="sourcePoint"/>
                            <mxPoint x="670" y="305" as="targetPoint"/>
                        </mxGeometry>
                    </mxCell>
                </object>
                <object placeholders="1" c4Name="Template Storage" c4Type="Component" c4Technology="node" c4Description="Componente armazenar templates utilizadoss" label="&lt;b&gt;%c4Name%&lt;/b&gt;&lt;div&gt;[%c4Type%: %c4Technology%]&lt;/div&gt;&lt;br&gt;&lt;div&gt;%c4Description%&lt;/div&gt;" id="0laCgoezgkWeQryW_9aH-1">
                    <mxCell style="rounded=1;whiteSpace=wrap;html=1;labelBackgroundColor=none;fillColor=#85BBF0;fontColor=#ffffff;align=center;arcSize=10;strokeColor=#78A8D8;metaEdit=1;metaData={&quot;c4Type&quot;:{&quot;editable&quot;:false}};points=[[0.25,0,0],[0.5,0,0],[0.75,0,0],[1,0.25,0],[1,0.5,0],[1,0.75,0],[0.75,1,0],[0.5,1,0],[0.25,1,0],[0,0.75,0],[0,0.5,0],[0,0.25,0]];" parent="1" vertex="1">
                        <mxGeometry x="380" y="360" width="160" height="110.00000000000001" as="geometry"/>
                    </mxCell>
                </object>
                <object placeholders="1" c4Type="Relationship" c4Technology="node" c4Description="Usa" label="&lt;div style=&quot;text-align: left&quot;&gt;&lt;div style=&quot;text-align: center&quot;&gt;&lt;b&gt;%c4Description%&lt;/b&gt;&lt;/div&gt;&lt;div style=&quot;text-align: center&quot;&gt;[%c4Technology%]&lt;/div&gt;&lt;/div&gt;" id="0laCgoezgkWeQryW_9aH-2">
                    <mxCell style="edgeStyle=none;rounded=0;html=1;jettySize=auto;orthogonalLoop=1;strokeColor=#707070;strokeWidth=2;fontColor=#707070;jumpStyle=none;dashed=1;metaEdit=1;metaData={&quot;c4Type&quot;:{&quot;editable&quot;:false}};" parent="1" source="ylQ0tcns-Ho-obvVlglr-1" target="0laCgoezgkWeQryW_9aH-1" edge="1">
                        <mxGeometry width="160" relative="1" as="geometry">
                            <mxPoint x="470" y="250" as="sourcePoint"/>
                            <mxPoint x="470" y="150" as="targetPoint"/>
                        </mxGeometry>
                    </mxCell>
                </object>
            </root>
        </mxGraphModel>
    </diagram>
    <diagram id="9ul1i6fmF1jRA1jPEcCF" name="Template Versioning">
        <mxGraphModel dx="419" dy="478" grid="1" gridSize="10" guides="1" tooltips="1" connect="1" arrows="1" fold="1" page="1" pageScale="1" pageWidth="827" pageHeight="1169" math="0" shadow="0">
            <root>
                <mxCell id="qbu7-cqED2_M8T7Hv4dI-0"/>
                <mxCell id="qbu7-cqED2_M8T7Hv4dI-1" parent="qbu7-cqED2_M8T7Hv4dI-0"/>
                <mxCell id="qbu7-cqED2_M8T7Hv4dI-3" value="" style="rounded=0;whiteSpace=wrap;html=1;fillColor=#dae8fc;strokeColor=none;" parent="qbu7-cqED2_M8T7Hv4dI-1" vertex="1">
                    <mxGeometry x="40" y="80" width="740" height="10" as="geometry"/>
                </mxCell>
                <mxCell id="qbu7-cqED2_M8T7Hv4dI-5" style="edgeStyle=orthogonalEdgeStyle;rounded=0;orthogonalLoop=1;jettySize=auto;html=1;entryX=0;entryY=0.5;entryDx=0;entryDy=0;curved=1;exitX=1;exitY=0.5;exitDx=0;exitDy=0;endArrow=none;endFill=0;strokeColor=#6666FF;strokeWidth=4;" parent="qbu7-cqED2_M8T7Hv4dI-1" source="qbu7-cqED2_M8T7Hv4dI-2" target="qbu7-cqED2_M8T7Hv4dI-4" edge="1">
                    <mxGeometry relative="1" as="geometry"/>
                </mxCell>
                <mxCell id="qbu7-cqED2_M8T7Hv4dI-2" value="branch" style="ellipse;whiteSpace=wrap;html=1;aspect=fixed;fillColor=#f8cecc;strokeColor=#b85450;strokeWidth=4;" parent="qbu7-cqED2_M8T7Hv4dI-1" vertex="1">
                    <mxGeometry x="60" y="58.75" width="52.5" height="52.5" as="geometry"/>
                </mxCell>
                <mxCell id="qbu7-cqED2_M8T7Hv4dI-8" style="edgeStyle=orthogonalEdgeStyle;curved=1;rounded=0;orthogonalLoop=1;jettySize=auto;html=1;exitX=1;exitY=0.5;exitDx=0;exitDy=0;endArrow=none;endFill=0;strokeColor=#6666FF;strokeWidth=4;" parent="qbu7-cqED2_M8T7Hv4dI-1" source="qbu7-cqED2_M8T7Hv4dI-4" target="qbu7-cqED2_M8T7Hv4dI-6" edge="1">
                    <mxGeometry relative="1" as="geometry"/>
                </mxCell>
                <mxCell id="qbu7-cqED2_M8T7Hv4dI-4" value="" style="ellipse;whiteSpace=wrap;html=1;aspect=fixed;strokeColor=#6666FF;strokeWidth=4;" parent="qbu7-cqED2_M8T7Hv4dI-1" vertex="1">
                    <mxGeometry x="180" y="160" width="20" height="20" as="geometry"/>
                </mxCell>
                <mxCell id="qbu7-cqED2_M8T7Hv4dI-9" style="edgeStyle=orthogonalEdgeStyle;curved=1;rounded=0;orthogonalLoop=1;jettySize=auto;html=1;exitX=1;exitY=0.5;exitDx=0;exitDy=0;entryX=0;entryY=0.5;entryDx=0;entryDy=0;endArrow=none;endFill=0;strokeColor=#6666FF;strokeWidth=4;" parent="qbu7-cqED2_M8T7Hv4dI-1" source="qbu7-cqED2_M8T7Hv4dI-6" target="qbu7-cqED2_M8T7Hv4dI-7" edge="1">
                    <mxGeometry relative="1" as="geometry"/>
                </mxCell>
                <mxCell id="qbu7-cqED2_M8T7Hv4dI-6" value="" style="ellipse;whiteSpace=wrap;html=1;aspect=fixed;strokeColor=#6666FF;strokeWidth=4;" parent="qbu7-cqED2_M8T7Hv4dI-1" vertex="1">
                    <mxGeometry x="230" y="160" width="20" height="20" as="geometry"/>
                </mxCell>
                <mxCell id="qbu7-cqED2_M8T7Hv4dI-11" style="edgeStyle=orthogonalEdgeStyle;curved=1;rounded=0;orthogonalLoop=1;jettySize=auto;html=1;exitX=1;exitY=0.5;exitDx=0;exitDy=0;endArrow=none;endFill=0;strokeColor=#6666FF;strokeWidth=4;" parent="qbu7-cqED2_M8T7Hv4dI-1" source="qbu7-cqED2_M8T7Hv4dI-7" target="qbu7-cqED2_M8T7Hv4dI-10" edge="1">
                    <mxGeometry relative="1" as="geometry"/>
                </mxCell>
                <mxCell id="qbu7-cqED2_M8T7Hv4dI-7" value="" style="ellipse;whiteSpace=wrap;html=1;aspect=fixed;strokeColor=#6666FF;strokeWidth=4;" parent="qbu7-cqED2_M8T7Hv4dI-1" vertex="1">
                    <mxGeometry x="280" y="160" width="20" height="20" as="geometry"/>
                </mxCell>
                <mxCell id="qbu7-cqED2_M8T7Hv4dI-12" style="edgeStyle=orthogonalEdgeStyle;curved=1;rounded=0;orthogonalLoop=1;jettySize=auto;html=1;endArrow=none;endFill=0;strokeColor=#6666FF;strokeWidth=4;entryX=0;entryY=0.5;entryDx=0;entryDy=0;" parent="qbu7-cqED2_M8T7Hv4dI-1" source="qbu7-cqED2_M8T7Hv4dI-10" target="qbu7-cqED2_M8T7Hv4dI-13" edge="1">
                    <mxGeometry relative="1" as="geometry">
                        <mxPoint x="490" y="220" as="targetPoint"/>
                    </mxGeometry>
                </mxCell>
                <mxCell id="qbu7-cqED2_M8T7Hv4dI-10" value="PR" style="ellipse;whiteSpace=wrap;html=1;aspect=fixed;strokeColor=#6666FF;strokeWidth=4;" parent="qbu7-cqED2_M8T7Hv4dI-1" vertex="1">
                    <mxGeometry x="350" y="145" width="50" height="50" as="geometry"/>
                </mxCell>
                <mxCell id="qbu7-cqED2_M8T7Hv4dI-13" value="Merge" style="ellipse;whiteSpace=wrap;html=1;aspect=fixed;strokeColor=#6666FF;strokeWidth=4;" parent="qbu7-cqED2_M8T7Hv4dI-1" vertex="1">
                    <mxGeometry x="510" y="61.25" width="50" height="50" as="geometry"/>
                </mxCell>
                <mxCell id="qbu7-cqED2_M8T7Hv4dI-14" value="Release" style="ellipse;whiteSpace=wrap;html=1;aspect=fixed;strokeColor=#6666FF;strokeWidth=4;" parent="qbu7-cqED2_M8T7Hv4dI-1" vertex="1">
                    <mxGeometry x="700" y="61.25" width="50" height="50" as="geometry"/>
                </mxCell>
                <mxCell id="qbu7-cqED2_M8T7Hv4dI-16" style="edgeStyle=orthogonalEdgeStyle;curved=1;rounded=0;orthogonalLoop=1;jettySize=auto;html=1;endArrow=none;endFill=0;strokeColor=#d6b656;strokeWidth=4;fillColor=#fff2cc;" parent="qbu7-cqED2_M8T7Hv4dI-1" source="qbu7-cqED2_M8T7Hv4dI-15" target="qbu7-cqED2_M8T7Hv4dI-13" edge="1">
                    <mxGeometry relative="1" as="geometry"/>
                </mxCell>
                <mxCell id="qbu7-cqED2_M8T7Hv4dI-15" value="Draft Release" style="shape=note;strokeWidth=2;fontSize=14;size=9;whiteSpace=wrap;html=1;fillColor=#fff2cc;strokeColor=#d6b656;fontColor=#666600;" parent="qbu7-cqED2_M8T7Hv4dI-1" vertex="1">
                    <mxGeometry x="505" y="150" width="60" height="45" as="geometry"/>
                </mxCell>
            </root>
        </mxGraphModel>
    </diagram>
    <diagram id="qBegQtC1JUlkqCPmT1sP" name="generation process">
        <mxGraphModel dx="419" dy="478" grid="1" gridSize="10" guides="1" tooltips="1" connect="1" arrows="1" fold="1" page="1" pageScale="1" pageWidth="850" pageHeight="1100" math="0" shadow="0">
            <root>
                <mxCell id="0"/>
                <mxCell id="1" parent="0"/>
                <mxCell id="7zYsZiRvtWxDqOuW7tQp-1" value="Scafflater Process" style="rounded=0;whiteSpace=wrap;html=1;fillColor=none;strokeColor=#B3B3B3;verticalAlign=top;fontColor=#B3B3B3;fontSize=14;fontStyle=1;dashed=1;" vertex="1" parent="1">
                    <mxGeometry x="210" y="40" width="640" height="360" as="geometry"/>
                </mxCell>
                <mxCell id="7zYsZiRvtWxDqOuW7tQp-2" value="Results" style="rounded=0;whiteSpace=wrap;html=1;fillColor=none;strokeColor=#B3B3B3;verticalAlign=top;fontColor=#B3B3B3;fontSize=14;fontStyle=1;dashed=1;" vertex="1" parent="1">
                    <mxGeometry x="860" y="40" width="160" height="360" as="geometry"/>
                </mxCell>
                <mxCell id="7zYsZiRvtWxDqOuW7tQp-3" value="Input" style="rounded=0;whiteSpace=wrap;html=1;fillColor=none;strokeColor=#B3B3B3;verticalAlign=top;fontColor=#B3B3B3;fontSize=14;fontStyle=1;dashed=1;" vertex="1" parent="1">
                    <mxGeometry x="40" y="40" width="160" height="360" as="geometry"/>
                </mxCell>
                <mxCell id="7zYsZiRvtWxDqOuW7tQp-4" style="edgeStyle=orthogonalEdgeStyle;html=1;exitX=1;exitY=0.5;exitDx=0;exitDy=0;entryX=0;entryY=0.5;entryDx=0;entryDy=0;curved=1;strokeColor=#B3B3B3;strokeWidth=2;" edge="1" parent="1" source="7zYsZiRvtWxDqOuW7tQp-5" target="7zYsZiRvtWxDqOuW7tQp-13">
                    <mxGeometry relative="1" as="geometry"/>
                </mxCell>
                <mxCell id="7zYsZiRvtWxDqOuW7tQp-5" value="Template" style="rounded=1;whiteSpace=wrap;html=1;fillColor=#647687;strokeColor=#314354;fontColor=#ffffff;" vertex="1" parent="1">
                    <mxGeometry x="60" y="160" width="120" height="60" as="geometry"/>
                </mxCell>
                <mxCell id="7zYsZiRvtWxDqOuW7tQp-6" style="edgeStyle=orthogonalEdgeStyle;curved=1;html=1;exitX=1;exitY=0.5;exitDx=0;exitDy=0;entryX=0;entryY=0.5;entryDx=0;entryDy=0;strokeColor=#B3B3B3;strokeWidth=2;" edge="1" parent="1" source="7zYsZiRvtWxDqOuW7tQp-7" target="7zYsZiRvtWxDqOuW7tQp-13">
                    <mxGeometry relative="1" as="geometry"/>
                </mxCell>
                <mxCell id="7zYsZiRvtWxDqOuW7tQp-7" value="Parameters" style="rounded=1;whiteSpace=wrap;html=1;fillColor=#647687;fontColor=#ffffff;strokeColor=#314354;" vertex="1" parent="1">
                    <mxGeometry x="60" y="240" width="120" height="60" as="geometry"/>
                </mxCell>
                <mxCell id="7zYsZiRvtWxDqOuW7tQp-8" style="edgeStyle=orthogonalEdgeStyle;curved=1;html=1;exitX=1;exitY=0.5;exitDx=0;exitDy=0;entryX=0.5;entryY=0;entryDx=0;entryDy=0;strokeColor=#B3B3B3;strokeWidth=2;" edge="1" parent="1" source="7zYsZiRvtWxDqOuW7tQp-11" target="7zYsZiRvtWxDqOuW7tQp-13">
                    <mxGeometry relative="1" as="geometry"/>
                </mxCell>
                <mxCell id="7zYsZiRvtWxDqOuW7tQp-9" style="edgeStyle=orthogonalEdgeStyle;curved=1;html=1;exitX=1;exitY=0.5;exitDx=0;exitDy=0;fontSize=14;fontColor=#B3B3B3;strokeColor=#B3B3B3;strokeWidth=2;" edge="1" parent="1" source="7zYsZiRvtWxDqOuW7tQp-11" target="7zYsZiRvtWxDqOuW7tQp-21">
                    <mxGeometry relative="1" as="geometry"/>
                </mxCell>
                <mxCell id="7zYsZiRvtWxDqOuW7tQp-10" style="edgeStyle=orthogonalEdgeStyle;curved=1;sketch=0;html=1;exitX=1;exitY=0.5;exitDx=0;exitDy=0;entryX=0.5;entryY=0;entryDx=0;entryDy=0;shadow=0;fontSize=14;fontColor=#B3B3B3;strokeColor=#B3B3B3;strokeWidth=2;" edge="1" parent="1" source="7zYsZiRvtWxDqOuW7tQp-11" target="7zYsZiRvtWxDqOuW7tQp-15">
                    <mxGeometry relative="1" as="geometry"/>
                </mxCell>
                <mxCell id="7zYsZiRvtWxDqOuW7tQp-11" value="Options" style="rounded=1;whiteSpace=wrap;html=1;fillColor=#647687;fontColor=#ffffff;strokeColor=#314354;" vertex="1" parent="1">
                    <mxGeometry x="60" y="80" width="120" height="60" as="geometry"/>
                </mxCell>
                <mxCell id="7zYsZiRvtWxDqOuW7tQp-12" style="edgeStyle=orthogonalEdgeStyle;curved=1;html=1;exitX=1;exitY=0.5;exitDx=0;exitDy=0;strokeColor=#B3B3B3;strokeWidth=2;" edge="1" parent="1" source="7zYsZiRvtWxDqOuW7tQp-13" target="7zYsZiRvtWxDqOuW7tQp-19">
                    <mxGeometry relative="1" as="geometry"/>
                </mxCell>
                <mxCell id="7zYsZiRvtWxDqOuW7tQp-13" value="Processor" style="rounded=1;whiteSpace=wrap;html=1;fillColor=#fa6800;fontColor=#000000;strokeColor=#C73500;" vertex="1" parent="1">
                    <mxGeometry x="240" y="210" width="120" height="60" as="geometry"/>
                </mxCell>
                <mxCell id="7zYsZiRvtWxDqOuW7tQp-14" style="edgeStyle=orthogonalEdgeStyle;curved=1;html=1;exitX=1;exitY=0.5;exitDx=0;exitDy=0;strokeColor=#B3B3B3;strokeWidth=2;" edge="1" parent="1" source="7zYsZiRvtWxDqOuW7tQp-15" target="7zYsZiRvtWxDqOuW7tQp-21">
                    <mxGeometry relative="1" as="geometry"/>
                </mxCell>
                <mxCell id="7zYsZiRvtWxDqOuW7tQp-15" value="Appender" style="rounded=1;whiteSpace=wrap;html=1;fillColor=#fa6800;fontColor=#000000;strokeColor=#C73500;" vertex="1" parent="1">
                    <mxGeometry x="560" y="210" width="120" height="60" as="geometry"/>
                </mxCell>
                <mxCell id="7zYsZiRvtWxDqOuW7tQp-16" style="edgeStyle=orthogonalEdgeStyle;curved=1;html=1;exitX=1;exitY=0.5;exitDx=0;exitDy=0;entryX=0.5;entryY=1;entryDx=0;entryDy=0;strokeColor=#B3B3B3;strokeWidth=2;shadow=0;sketch=0;" edge="1" parent="1" source="7zYsZiRvtWxDqOuW7tQp-17" target="7zYsZiRvtWxDqOuW7tQp-15">
                    <mxGeometry relative="1" as="geometry"/>
                </mxCell>
                <mxCell id="7zYsZiRvtWxDqOuW7tQp-17" value="Existing Content" style="rounded=1;whiteSpace=wrap;html=1;fillColor=#647687;fontColor=#ffffff;strokeColor=#314354;" vertex="1" parent="1">
                    <mxGeometry x="60" y="320" width="120" height="60" as="geometry"/>
                </mxCell>
                <mxCell id="7zYsZiRvtWxDqOuW7tQp-18" style="edgeStyle=orthogonalEdgeStyle;curved=1;html=1;exitX=1;exitY=0.5;exitDx=0;exitDy=0;strokeColor=#B3B3B3;strokeWidth=2;" edge="1" parent="1" source="7zYsZiRvtWxDqOuW7tQp-19" target="7zYsZiRvtWxDqOuW7tQp-15">
                    <mxGeometry relative="1" as="geometry"/>
                </mxCell>
                <mxCell id="7zYsZiRvtWxDqOuW7tQp-19" value="Processor Result" style="rounded=1;whiteSpace=wrap;html=1;fillColor=#647687;fontColor=#ffffff;strokeColor=#314354;" vertex="1" parent="1">
                    <mxGeometry x="400" y="210" width="120" height="60" as="geometry"/>
                </mxCell>
                <mxCell id="7zYsZiRvtWxDqOuW7tQp-20" style="edgeStyle=orthogonalEdgeStyle;curved=1;html=1;exitX=1;exitY=0.5;exitDx=0;exitDy=0;entryX=0;entryY=0.5;entryDx=0;entryDy=0;strokeColor=#B3B3B3;strokeWidth=2;" edge="1" parent="1" source="7zYsZiRvtWxDqOuW7tQp-21" target="7zYsZiRvtWxDqOuW7tQp-22">
                    <mxGeometry relative="1" as="geometry"/>
                </mxCell>
                <mxCell id="7zYsZiRvtWxDqOuW7tQp-21" value="Prettier" style="rounded=1;whiteSpace=wrap;html=1;fillColor=#fa6800;fontColor=#000000;strokeColor=#C73500;" vertex="1" parent="1">
                    <mxGeometry x="720" y="210" width="120" height="60" as="geometry"/>
                </mxCell>
                <mxCell id="7zYsZiRvtWxDqOuW7tQp-22" value="Output Folder" style="rounded=1;whiteSpace=wrap;html=1;fillColor=#e3c800;fontColor=#000000;strokeColor=#B09500;" vertex="1" parent="1">
                    <mxGeometry x="880" y="210" width="120" height="60" as="geometry"/>
                </mxCell>
            </root>
        </mxGraphModel>
    </diagram>
</mxfile>